<svg width="129" height="128" viewBox="0 0 129 128" fill="none" xmlns="http://www.w3.org/2000/svg">
<g clip-path="url(#clip0_4_20839)">
<path d="M64.5735 9.4574C94.8089 9.4574 119.319 33.8733 119.319 63.9919C119.319 94.1101 94.8089 118.526 64.5735 118.526C34.3386 118.526 9.82812 94.1101 9.82812 63.9919C9.82812 33.8733 34.3386 9.4574 64.5735 9.4574Z" fill="#FF8E12"/>
<path d="M64.5723 127.961C100.039 127.961 128.79 99.3205 128.79 63.991C128.79 28.6615 100.039 0.0211182 64.5723 0.0211182C29.1059 0.0211182 0.354492 28.6615 0.354492 63.991C0.354492 99.3205 29.1059 127.961 64.5723 127.961ZM64.5723 122.63C32.0613 122.63 5.70598 96.3765 5.70598 63.991C5.70598 31.6055 32.0613 5.35194 64.5723 5.35194C97.0833 5.35194 123.439 31.6055 123.439 63.991C123.439 96.3765 97.0833 122.63 64.5723 122.63Z" fill="#FF8E12"/>
<path d="M37.9038 27.1712C37.8932 26.2541 38.5619 25.7406 39.4503 25.3807C39.0436 25.4469 38.6541 25.5483 38.3034 25.7049C37.3772 26.1231 36.6849 27.7062 36.6914 28.4557C41.1878 28.0029 47.8368 28.3161 52.699 29.7618C53.0578 29.7116 53.4166 29.6614 53.7809 29.6197C48.9313 27.4748 43.1656 26.6466 37.9038 27.1712ZM38.8254 21.6596C38.9267 21.6416 39.0295 21.629 39.1313 21.6119C38.1613 21.7319 37.6498 22.0773 36.9217 22.1962C37.7123 22.266 40.708 23.6589 42.5906 24.4249C42.8547 24.325 43.0925 24.2141 43.2865 24.0831C42.3105 23.9395 39.8852 21.756 38.8254 21.6596ZM43.5007 32.505C43.2311 32.6084 42.9751 32.7163 42.7534 32.8323C35.4241 36.6788 32.1865 45.6634 34.1159 56.4294C35.8771 66.2267 43.0955 99.701 46.4007 115.445C47.3656 115.783 48.3422 116.097 49.3309 116.382C46.3876 102.206 38.3538 65.0612 36.4793 54.6289C34.579 44.016 36.4279 36.4007 43.5007 32.505Z" fill="#D5D7D8"/>
<path d="M67.5229 105.663C67.402 105.743 70.2944 106.416 70.5464 106.165C70.7983 106.416 70.2959 104.24 70.0425 104.408C68.5287 105.408 71.0402 104.159 68.7827 103.655C68.3942 103.569 70.0203 104.352 69.7905 104.157C65.9361 106.289 68.8108 104.157 68.7827 103.655C68.6578 101.423 69.5355 104.403 69.7905 101.145C69.9765 98.6855 59.8167 99.7998 64.0359 101.889C64.9687 101.022 69.9055 102.4 69.9055 101.145C66.8493 93.7357 63.9664 84.359 65.3481 78.349C63.4383 77.0234 60.9072 73.9489 61.4343 70.7398C61.8404 68.2973 68.1765 63.6762 72.6628 63.3971C77.1592 63.1145 78.5605 63.1783 82.3066 62.2848L82.9158 62.1392C85.2217 54.0642 79.6913 40.0158 73.5225 33.8683C71.5114 31.865 68.4194 30.604 64.9354 29.9384C63.5955 28.1068 61.4343 26.3554 58.3745 24.7336C52.693 21.7289 45.6716 20.5056 39.1304 21.6119C39.0286 21.629 38.9258 21.6415 38.8245 21.6596C39.8842 21.756 42.3095 23.9395 43.2856 24.0831C43.0916 24.2141 42.8537 24.325 42.5897 24.4249C41.6736 24.7723 40.4284 24.9831 39.4493 25.3806C38.561 25.7405 37.8923 26.254 37.9028 27.1711C43.1646 26.6466 48.9303 27.4748 53.7799 29.6197C53.4156 29.6614 53.0568 29.7116 52.698 29.7617C49.2589 30.2436 46.0979 31.1311 43.8142 32.3313C43.7068 32.387 43.605 32.4472 43.4997 32.505C36.4269 36.4007 34.5781 44.0159 36.4783 54.6289C38.3528 65.0611 46.439 102.781 49.3823 116.957C54.2213 118.352 58.7459 119.467 64.0359 119.467C68.5267 119.467 73.9281 118.475 78.105 117.459C76.6381 114.641 71.2055 103.63 70.0425 101.396C68.0168 97.4828 67.6746 105.562 67.5229 105.663ZM76.1181 56.2482C74.2012 56.2482 72.6376 54.6951 72.6376 52.7746C72.6376 50.8632 74.2012 49.3096 76.1181 49.3096C78.0455 49.3096 79.6031 50.8632 79.6031 52.7746C79.6038 53.2308 79.5141 53.6826 79.3392 54.1042C79.1643 54.5258 78.9077 54.9089 78.584 55.2316C78.2603 55.5542 77.8758 55.8101 77.4527 55.9846C77.0295 56.159 76.576 56.2486 76.1181 56.2482ZM78.2148 43.1932C78.2148 43.1932 76.0193 41.9438 74.3156 41.9649C70.8145 42.0106 69.8611 43.5516 69.8611 43.5516C69.8611 43.5516 70.4486 39.8783 74.9258 40.6151C77.3532 41.0172 78.2148 43.1932 78.2148 43.1932ZM41.3012 47.7094C41.3012 47.7094 39.7245 44.2092 43.9265 42.494C48.1332 40.7783 50.1815 43.4703 50.1815 43.4703C50.1815 43.4703 47.1269 42.0939 44.1568 43.9532C41.1918 45.8104 41.3012 47.7094 41.3012 47.7094ZM44.9747 55.1695C44.9744 54.639 45.0791 54.1137 45.2828 53.6236C45.4865 53.1335 45.7852 52.6882 46.1618 52.3132C46.5384 51.9382 46.9856 51.6408 47.4776 51.4381C47.9697 51.2354 48.4971 51.1313 49.0296 51.1317C49.5618 51.1317 50.0888 51.2362 50.5805 51.4391C51.0721 51.6421 51.5189 51.9395 51.8951 52.3145C52.2713 52.6894 52.5697 53.1346 52.7732 53.6245C52.9767 54.1143 53.0813 54.6393 53.081 55.1695C53.081 57.4017 51.2669 59.2058 49.0296 59.2058C48.4971 59.2066 47.9697 59.1028 47.4775 58.9003C46.9854 58.6978 46.5381 58.4006 46.1615 58.0257C45.7848 57.6507 45.4861 57.2055 45.2824 56.7154C45.0788 56.2252 44.9742 55.6999 44.9747 55.1695Z" fill="white"/>
<path d="M53.0819 55.1695C53.0822 54.6393 52.9776 54.1143 52.7741 53.6245C52.5706 53.1346 52.2722 52.6894 51.896 52.3145C51.5198 51.9395 51.0731 51.6421 50.5814 51.4391C50.0897 51.2362 49.5627 51.1317 49.0305 51.1317C48.498 51.1313 47.9706 51.2354 47.4786 51.4381C46.9865 51.6408 46.5394 51.9382 46.1627 52.3132C45.7861 52.6882 45.4874 53.1335 45.2837 53.6236C45.08 54.1137 44.9753 54.639 44.9756 55.1695C44.9751 55.6999 45.0797 56.2252 45.2834 56.7153C45.487 57.2055 45.7857 57.6507 46.1624 58.0257C46.5391 58.4006 46.9863 58.6978 47.4784 58.9003C47.9706 59.1028 48.498 59.2066 49.0305 59.2058C51.2679 59.2058 53.0819 57.4017 53.0819 55.1695ZM50.8254 54.8728C50.5469 54.8716 50.2802 54.7606 50.0837 54.564C49.8871 54.3673 49.7768 54.1012 49.7768 53.8237C49.7768 53.5461 49.8875 53.2798 50.0846 53.0835C50.2817 52.8872 50.549 52.7769 50.8277 52.7769C51.1064 52.7769 51.3737 52.8872 51.5708 53.0835C51.7679 53.2798 51.8786 53.5461 51.8786 53.8237C51.8786 53.9615 51.8514 54.0979 51.7984 54.2252C51.7455 54.3525 51.6679 54.4681 51.5701 54.5656C51.4723 54.663 51.3562 54.7402 51.2285 54.793C51.1007 54.8457 50.9637 54.8728 50.8254 54.8728Z" fill="#2D4F8E"/>
<path d="M50.825 52.7756C50.5464 52.7762 50.2795 52.8869 50.0828 53.0834C49.8862 53.28 49.776 53.5462 49.7764 53.8237C49.7764 54.403 50.2495 54.8743 50.825 54.8728C51.1043 54.8728 51.3722 54.7623 51.5697 54.5656C51.7672 54.3688 51.8782 54.102 51.8782 53.8237C51.8782 53.686 51.851 53.5496 51.7981 53.4223C51.7452 53.2951 51.6676 53.1795 51.5698 53.0821C51.472 52.9848 51.3558 52.9076 51.228 52.855C51.1002 52.8024 50.9633 52.7754 50.825 52.7756Z" fill="white"/>
<path d="M76.1182 49.3096C74.2013 49.3096 72.6377 50.8631 72.6377 52.7746C72.6377 54.6951 74.2013 56.2482 76.1182 56.2482C76.5761 56.2486 77.0296 56.159 77.4528 55.9845C77.8759 55.8101 78.2603 55.5542 78.5841 55.2316C78.9078 54.9089 79.1644 54.5258 79.3393 54.1042C79.5142 53.6826 79.6039 53.2308 79.6032 52.7746C79.6032 50.8631 78.0456 49.3096 76.1182 49.3096ZM77.6637 52.5191C77.1723 52.5191 76.7667 52.1211 76.7667 51.6211C76.7667 51.1277 77.1723 50.7226 77.6637 50.7226C78.1761 50.7226 78.5692 51.1277 78.5692 51.6211C78.5692 52.1211 78.1761 52.5191 77.6637 52.5191Z" fill="#2D4F8E"/>
<path d="M77.6645 50.7227C77.1732 50.7227 76.7676 51.1277 76.7676 51.6212C76.7676 52.1211 77.1732 52.5192 77.6645 52.5192C77.7836 52.5208 77.9017 52.4987 78.012 52.4542C78.1224 52.4097 78.2226 52.3436 78.307 52.26C78.3914 52.1763 78.4581 52.0767 78.5033 51.967C78.5484 51.8573 78.5711 51.7397 78.5701 51.6212C78.5701 51.1277 78.177 50.7227 77.6645 50.7227Z" fill="white"/>
<path d="M50.1819 43.4703C50.1819 43.4703 48.1335 40.7783 43.9269 42.494C39.7248 44.2092 41.3015 47.7094 41.3015 47.7094C41.3015 47.7094 41.1922 45.8104 44.1572 43.9532C47.1272 42.0939 50.1819 43.4703 50.1819 43.4703ZM74.9262 40.6152C70.449 39.8783 69.8614 43.5516 69.8614 43.5516C69.8614 43.5516 70.8148 42.0106 74.3159 41.9649C76.0197 41.9438 78.2152 43.1932 78.2152 43.1932C78.2152 43.1932 77.3535 41.0172 74.9262 40.6152Z" fill="url(#paint0_linear_4_20839)"/>
<path d="M72.6635 63.3972C68.1772 63.6763 61.8411 68.2973 61.435 70.7399C60.9079 73.9489 63.439 77.0234 65.3488 78.3491L65.3644 78.3606C67.2737 79.6838 79.9868 83.956 86.2942 83.8375C92.6086 83.7151 102.979 79.863 101.84 76.7765C100.706 73.6889 90.407 79.5006 79.6648 78.5087C71.7091 77.7724 70.3047 74.222 72.0664 71.6288C74.282 68.3696 78.3178 72.2473 84.9744 70.263C91.6411 68.2843 100.964 64.7424 104.424 62.8139C112.422 58.3721 101.077 56.5299 98.397 57.7622C95.8568 58.9312 87.0152 61.1539 82.9165 62.1393L82.3073 62.2848C78.5612 63.1783 77.1598 63.1146 72.6635 63.3972Z" fill="#FDD209"/>
<path d="M82.8926 34.3842C51.6504 34.7858 34.2656 45.0927 29.4785 50.196L26.707 42.9177C29.4785 41.4118 35.0215 38.0487 35.0215 36.6432C35.0215 35.2377 29.2266 19.9948 28.7227 16.0628L59.7129 6.27454L65.2559 28.1097C73.5703 26.8549 76.7617 27.6914 80.625 28.1097L82.8926 34.3842Z" fill="black" stroke="black"/>
<path d="M37.0371 35.3883L30.2344 17.3177L40.0605 14.8079L37.0371 35.3883Z" fill="#262626"/>
</g>
<defs>
<linearGradient id="paint0_linear_4_20839" x1="2682.64" y1="759.708" x2="41.0117" y2="759.708" gradientUnits="userSpaceOnUse">
<stop stop-color="#394A9F"/>
<stop offset="1" stop-color="#6176B9"/>
</linearGradient>
<clipPath id="clip0_4_20839">
<rect width="129" height="128" fill="white"/>
</clipPath>
</defs>
</svg>
