<svg width="129" height="129" viewBox="0 0 129 129" fill="none" xmlns="http://www.w3.org/2000/svg">
<g clip-path="url(#clip0_4_20845)">
<path d="M64.5735 9.53137C94.8089 9.53137 119.319 34.138 119.319 64.492C119.319 94.8454 94.8089 119.452 64.5735 119.452C34.3386 119.452 9.82812 94.8454 9.82812 64.492C9.82812 34.138 34.3386 9.53137 64.5735 9.53137Z" fill="#590A42"/>
<path d="M64.5723 128.961C100.039 128.961 128.79 100.096 128.79 64.4909C128.79 28.8854 100.039 0.0212402 64.5723 0.0212402C29.1059 0.0212402 0.354492 28.8854 0.354492 64.4909C0.354492 100.096 29.1059 128.961 64.5723 128.961ZM64.5723 123.588C32.0613 123.588 5.70598 97.1294 5.70598 64.4909C5.70598 31.8524 32.0613 5.39371 64.5723 5.39371C97.0833 5.39371 123.439 31.8524 123.439 64.4909C123.439 97.1294 97.0833 123.588 64.5723 123.588Z" fill="#590A42"/>
<path d="M43.5007 32.7589C43.2311 32.8631 42.9751 32.9719 42.7534 33.0887C35.4241 36.9653 32.1865 46.0201 34.1159 56.8703C35.8771 66.7441 43.0955 100.48 46.4007 116.347C47.3656 116.688 48.3422 117.004 49.3309 117.291C46.3876 103.005 38.3538 65.5694 36.4793 55.0557C34.579 44.3598 36.4279 36.6851 43.5007 32.7589Z" fill="#DE5833"/>
<path d="M67.5229 106.488C67.402 106.569 70.2944 107.247 70.5464 106.994C70.7983 107.247 70.2959 105.055 70.0425 105.224C68.5287 106.232 71.0402 104.973 68.7827 104.465C68.3942 104.378 70.0203 105.167 69.7905 104.971C65.9361 107.119 68.8108 104.971 68.7827 104.465C68.6578 102.216 69.5355 105.219 69.7905 101.935C69.9765 99.4565 59.8167 100.579 64.0359 102.685C64.9687 101.811 69.9055 103.2 69.9055 101.935C66.8493 94.468 63.9664 85.018 65.3481 78.9611C63.4383 77.6251 60.9072 74.5265 61.4343 71.2924C61.8404 68.8308 68.1765 64.1737 72.6628 63.8924C77.1592 63.6076 78.5605 63.6718 82.3066 62.7714L82.9158 62.6246C85.2217 54.4865 79.6913 40.3284 73.5225 34.1328C71.5114 32.1139 68.4194 30.8431 64.9354 30.1723C63.5955 28.3263 61 28.9999 59 28.9999C56.1255 29.573 61.0412 28.385 54.5 29.4999C54.3982 29.5171 65.6755 32.6711 50.5 30.5C51.5597 30.5971 50.5239 29.7064 51.5 29.8511C51 30.2715 51.9868 30.0435 51.7228 30.1441C50.8067 30.4942 52.75 30.2772 51.7709 30.6779C50.8825 31.0406 54.9894 31.0758 55 32C60.2618 31.4714 54 29 53.7799 29.8511C53.4156 29.893 52.9691 29.8005 52.6104 29.8511C49.1712 30.3367 46.0979 31.3743 43.8142 32.5838C43.7068 32.64 43.605 32.7007 43.4997 32.7589C36.4269 36.685 34.5781 44.3598 36.4783 55.0556C38.3528 65.5694 46.439 103.584 49.3823 117.871C54.2213 119.276 58.7459 120.4 64.0359 120.4C68.5267 120.4 73.9281 119.401 78.105 118.376C76.6381 115.537 71.2055 104.44 70.0425 102.188C68.0168 98.2443 67.6746 106.387 67.5229 106.488ZM76.1181 56.6876C74.2012 56.6876 72.6376 55.1224 72.6376 53.1869C72.6376 51.2605 74.2012 49.6948 76.1181 49.6948C78.0455 49.6948 79.6031 51.2605 79.6031 53.1869C79.6038 53.6466 79.5141 54.102 79.3392 54.5269C79.1643 54.9518 78.9077 55.3379 78.584 55.663C78.2602 55.9882 77.8758 56.2461 77.4527 56.4219C77.0295 56.5977 76.576 56.688 76.1181 56.6876ZM78.2148 43.5306C78.2148 43.5306 76.0193 42.2715 74.3156 42.2927C70.8145 42.3388 69.8611 43.8918 69.8611 43.8918C69.8611 43.8918 70.4486 40.1898 74.9258 40.9324C77.3532 41.3376 78.2148 43.5306 78.2148 43.5306ZM41.3012 48.082C41.3012 48.082 39.7245 44.5545 43.9265 42.8259C48.1331 41.0968 50.1815 43.8099 50.1815 43.8099C50.1815 43.8099 47.1268 42.4227 44.1568 44.2965C41.1918 46.1683 41.3012 48.082 41.3012 48.082ZM44.9747 55.6005C44.9744 55.0659 45.0791 54.5365 45.2828 54.0425C45.4865 53.5486 45.7852 53.0998 46.1618 52.7219C46.5384 52.3439 46.9856 52.0442 47.4776 51.8399C47.9697 51.6356 48.4971 51.5307 49.0296 51.5311C49.5618 51.5311 50.0888 51.6364 50.5805 51.8409C51.0721 52.0455 51.5189 52.3452 51.8951 52.7231C52.2713 53.101 52.5697 53.5497 52.7732 54.0434C52.9767 54.5371 53.0813 55.0662 53.081 55.6005C53.081 57.8501 51.2669 59.6683 49.0296 59.6683C48.4971 59.6691 47.9697 59.5645 47.4775 59.3604C46.9854 59.1564 46.5381 58.8568 46.1615 58.479C45.7848 58.1011 45.4861 57.6523 45.2824 57.1584C45.0788 56.6645 44.9742 56.135 44.9747 55.6005Z" fill="#FF8E12"/>
<path d="M53.0819 55.6006C53.0822 55.0663 52.9776 54.5372 52.7741 54.0435C52.5706 53.5498 52.2722 53.1011 51.896 52.7233C51.5198 52.3454 51.0731 52.0456 50.5814 51.8411C50.0897 51.6365 49.5627 51.5313 49.0305 51.5313C48.498 51.5308 47.9706 51.6357 47.4786 51.84C46.9865 52.0444 46.5394 52.3441 46.1627 52.722C45.7861 53.0999 45.4874 53.5487 45.2837 54.0426C45.08 54.5366 44.9753 55.066 44.9756 55.6006C44.9751 56.1351 45.0797 56.6646 45.2834 57.1585C45.487 57.6524 45.7857 58.1012 46.1624 58.4791C46.5391 58.8569 46.9863 59.1565 47.4784 59.3605C47.9706 59.5646 48.498 59.6692 49.0305 59.6684C51.2679 59.6684 53.0819 57.8502 53.0819 55.6006ZM50.8254 55.3016C50.5469 55.3004 50.2802 55.1885 50.0837 54.9903C49.8871 54.7922 49.7768 54.5239 49.7768 54.2443C49.7768 53.9645 49.8875 53.6961 50.0846 53.4983C50.2817 53.3004 50.549 53.1893 50.8277 53.1893C51.1064 53.1893 51.3737 53.3004 51.5708 53.4983C51.7679 53.6961 51.8786 53.9645 51.8786 54.2443C51.8786 54.3831 51.8514 54.5206 51.7984 54.6489C51.7455 54.7772 51.6679 54.8937 51.5701 54.9919C51.4723 55.0901 51.3562 55.168 51.2285 55.2211C51.1007 55.2742 50.9637 55.3016 50.8254 55.3016Z" fill="#262626"/>
<path d="M50.825 53.188C50.5464 53.1885 50.2795 53.3001 50.0828 53.4982C49.8862 53.6963 49.776 53.9646 49.7764 54.2443C49.7764 54.8281 50.2495 55.3031 50.825 55.3016C51.1043 55.3016 51.3722 55.1902 51.5697 54.9919C51.7672 54.7936 51.8782 54.5247 51.8782 54.2443C51.8782 54.1055 51.851 53.968 51.7981 53.8397C51.7452 53.7115 51.6676 53.595 51.5698 53.4969C51.472 53.3987 51.3558 53.321 51.228 53.268C51.1002 53.215 50.9633 53.1878 50.825 53.188Z" fill="white"/>
<path d="M76.1182 49.6948C74.2013 49.6948 72.6377 51.2605 72.6377 53.1869C72.6377 55.1224 74.2013 56.6876 76.1182 56.6876C76.5761 56.688 77.0296 56.5977 77.4528 56.4219C77.8759 56.2461 78.2603 55.9882 78.5841 55.6631C78.9078 55.3379 79.1644 54.9518 79.3393 54.5269C79.5142 54.102 79.6039 53.6467 79.6032 53.1869C79.6032 51.2605 78.0456 49.6948 76.1182 49.6948ZM77.6637 52.9294C77.1723 52.9294 76.7667 52.5283 76.7667 52.0244C76.7667 51.5271 77.1723 51.1189 77.6637 51.1189C78.1761 51.1189 78.5692 51.5271 78.5692 52.0244C78.5692 52.5283 78.1761 52.9294 77.6637 52.9294Z" fill="#262626"/>
<path d="M77.6645 51.1189C77.1732 51.1189 76.7676 51.5271 76.7676 52.0244C76.7676 52.5283 77.1732 52.9294 77.6645 52.9294C77.7836 52.9311 77.9017 52.9088 78.012 52.8639C78.1224 52.8191 78.2226 52.7525 78.307 52.6682C78.3914 52.5839 78.4581 52.4835 78.5033 52.373C78.5484 52.2624 78.5711 52.1439 78.5701 52.0244C78.5701 51.5271 78.177 51.1189 77.6645 51.1189Z" fill="white"/>
<path d="M50.1819 43.8099C50.1819 43.8099 48.1335 41.0969 43.9269 42.826C39.7248 44.5546 41.3015 48.0821 41.3015 48.0821C41.3015 48.0821 41.1922 46.1683 44.1572 44.2966C47.1272 42.4228 50.1819 43.8099 50.1819 43.8099ZM74.9262 40.9324C70.449 40.1898 69.8614 43.8919 69.8614 43.8919C69.8614 43.8919 70.8148 42.3388 74.3159 42.2928C76.0197 42.2715 78.2152 43.5307 78.2152 43.5307C78.2152 43.5307 77.3535 41.3377 74.9262 40.9324Z" fill="black"/>
<path d="M72.6635 63.8924C68.1772 64.1737 61.8411 68.8308 61.435 71.2924C60.9079 74.5265 63.439 77.6251 65.3488 78.9611L65.3644 78.9727C67.2737 80.3062 79.9868 84.6118 86.2942 84.4924C92.6086 84.369 102.979 80.4868 101.84 77.3762C100.706 74.2645 90.407 80.1216 79.6648 79.122C71.7091 78.3798 70.3047 74.8017 72.0664 72.1883C74.282 68.9037 78.3178 72.8116 84.9744 70.8118C91.6411 68.8177 100.964 65.2481 104.424 63.3045C112.422 58.828 101.077 56.9714 98.397 58.2133C95.8568 59.3915 87.0152 61.6316 82.9165 62.6246L82.3073 62.7713C78.5612 63.6718 77.1598 63.6076 72.6635 63.8924Z" fill="#FDD209"/>
<path d="M78.3574 21.7529L67.5234 31.1118L77.0977 40.2176L78.3574 21.7529Z" fill="#FF8E12"/>
<path d="M37.2891 49.8294L41.5723 36.6765L25.9512 29.5941L37.2891 49.8294Z" fill="#FF8E12"/>
<path d="M58.705 113.318C52.6581 113.925 49.8026 115.763 49.1307 116.606L47.871 111.294C54.0018 111.716 64.7518 112.711 58.705 113.318Z" fill="black"/>
<path d="M62.2323 104.718C66.062 103.706 70.5468 105.645 72.3104 106.741L69.5389 100.923C69.5389 101.176 68.6823 101.531 65.2557 100.923C61.8292 100.316 53.9179 103.2 50.3905 104.718C52.7421 105.139 58.4026 105.729 62.2323 104.718Z" fill="black"/>
<path d="M59.9647 94.347C54.7241 94.347 48.3749 98.3941 45.8553 100.418L43.8397 91.8176C44.5116 91.5647 46.2585 91.3623 47.871 92.5764C49.4835 93.7905 56.6054 94.2627 59.9647 94.347Z" fill="black"/>
<path d="M51.3983 81.953C57.6468 81.5482 63.0721 82.9647 65.0038 83.7235V80.9413C64.4999 79.7609 62.1315 77.8554 56.6893 79.6766C51.2471 81.4977 45.6874 80.7726 43.5878 80.1824C43.5878 80.9412 45.1499 82.3577 51.3983 81.953Z" fill="black"/>
<path d="M51.6503 68.2941C47.0143 69.7106 41.7401 72.594 40.3124 74.1116C39.8925 72.2567 39.7078 71.2282 39.3047 68.8C38.9015 66.3718 47.535 66.5235 51.6503 68.2941Z" fill="black"/>
<path d="M54.1699 37.1822C52.9605 35.1587 46.7792 33.3038 43.8397 32.6293C46.0233 31.9548 50.5921 30.5046 51.3984 30.0999C52.2046 29.6952 53.582 34.6528 54.1699 37.1822Z" fill="black"/>
<path d="M58.4531 38.9529C59.0578 34.2988 55.6816 30.9431 53.9179 29.8471C54.1699 29.8471 59.4609 29.0882 60.4687 29.3412C61.2749 29.5435 59.4609 35.8333 58.4531 38.9529Z" fill="black"/>
<path d="M64.248 37.9412C64.8527 36.7271 65.0039 32.3765 65.0039 30.3529C65.7597 30.5216 67.3722 30.9094 67.7753 31.1118C68.1785 31.3141 65.5917 35.749 64.248 37.9412Z" fill="black"/>
<path d="M58.705 113.318C52.6581 113.925 49.8026 115.763 49.1307 116.606L47.871 111.294C54.0018 111.716 64.7518 112.711 58.705 113.318Z" stroke="black"/>
<path d="M62.2323 104.718C66.062 103.706 70.5468 105.645 72.3104 106.741L69.5389 100.923C69.5389 101.176 68.6823 101.531 65.2557 100.923C61.8292 100.316 53.9179 103.2 50.3905 104.718C52.7421 105.139 58.4026 105.729 62.2323 104.718Z" stroke="black"/>
<path d="M59.9647 94.347C54.7241 94.347 48.3749 98.3941 45.8553 100.418L43.8397 91.8176C44.5116 91.5647 46.2585 91.3623 47.871 92.5764C49.4835 93.7905 56.6054 94.2627 59.9647 94.347Z" stroke="black"/>
<path d="M51.3983 81.953C57.6468 81.5482 63.0721 82.9647 65.0038 83.7235V80.9413C64.4999 79.7609 62.1315 77.8554 56.6893 79.6766C51.2471 81.4977 45.6874 80.7726 43.5878 80.1824C43.5878 80.9412 45.1499 82.3577 51.3983 81.953Z" stroke="black"/>
<path d="M51.6503 68.2941C47.0143 69.7106 41.7401 72.594 40.3124 74.1116C39.8925 72.2567 39.7078 71.2282 39.3047 68.8C38.9015 66.3718 47.535 66.5235 51.6503 68.2941Z" stroke="black"/>
<path d="M54.1699 37.1822C52.9605 35.1587 46.7792 33.3038 43.8397 32.6293C46.0233 31.9548 50.5921 30.5046 51.3984 30.0999C52.2046 29.6952 53.582 34.6528 54.1699 37.1822Z" stroke="black"/>
<path d="M58.4531 38.9529C59.0578 34.2988 55.6816 30.9431 53.9179 29.8471C54.1699 29.8471 59.4609 29.0882 60.4687 29.3412C61.2749 29.5435 59.4609 35.8333 58.4531 38.9529Z" stroke="black"/>
<path d="M64.248 37.9412C64.8527 36.7271 65.0039 32.3765 65.0039 30.3529C65.7597 30.5216 67.3722 30.9094 67.7753 31.1118C68.1785 31.3141 65.5917 35.749 64.248 37.9412Z" stroke="black"/>
</g>
<defs>
<clipPath id="clip0_4_20845">
<rect width="129" height="129" fill="white"/>
</clipPath>
</defs>
</svg>
