<svg width="129" height="128" viewBox="0 0 129 128" fill="none" xmlns="http://www.w3.org/2000/svg">
<g clip-path="url(#clip0_4_20840)">
<path d="M64.5735 9.4574C94.8089 9.4574 119.319 33.8733 119.319 63.9919C119.319 94.1101 94.8089 118.526 64.5735 118.526C34.3386 118.526 9.82812 94.1101 9.82812 63.9919C9.82812 33.8733 34.3386 9.4574 64.5735 9.4574Z" fill="#FF5770"/>
<path d="M64.5723 127.961C100.039 127.961 128.79 99.3205 128.79 63.991C128.79 28.6615 100.039 0.0211182 64.5723 0.0211182C29.1059 0.0211182 0.354492 28.6615 0.354492 63.991C0.354492 99.3205 29.1059 127.961 64.5723 127.961ZM64.5723 122.63C32.0613 122.63 5.70598 96.3765 5.70598 63.991C5.70598 31.6055 32.0613 5.35194 64.5723 5.35194C97.0833 5.35194 123.439 31.6055 123.439 63.991C123.439 96.3765 97.0833 122.63 64.5723 122.63Z" fill="#FF5770"/>
<path d="M43.5007 32.505C43.2311 32.6084 42.9751 32.7163 42.7534 32.8322C35.4241 36.6788 32.1865 45.6634 34.1159 56.4294C35.8771 66.2267 43.0955 99.7009 46.4007 115.445C47.3656 115.783 48.3422 116.097 49.3309 116.382C46.3876 102.206 38.3538 65.0611 36.4793 54.6289C34.579 44.0159 36.4279 36.4007 43.5007 32.505Z" fill="#D5D7D8"/>
<path d="M67.5229 105.663C67.402 105.743 70.2944 106.416 70.5464 106.165C70.7983 106.416 70.2959 104.24 70.0425 104.408C68.5287 105.408 71.0402 104.159 68.7827 103.655C68.3942 103.569 70.0203 104.352 69.7905 104.157C65.9361 106.289 68.8108 104.157 68.7827 103.655C68.6578 101.423 69.5355 104.403 69.7905 101.145C69.9765 98.6855 59.8167 99.7999 64.0359 101.89C64.9687 101.022 69.9055 102.4 69.9055 101.145C66.8493 93.7357 63.9664 84.3591 65.3481 78.3491C63.4383 77.0234 60.9072 73.9489 61.4343 70.7399C61.8404 68.2973 68.1765 63.6763 72.6628 63.3972C77.1592 63.1146 78.5605 63.1783 82.3066 62.2848L82.9158 62.1393C85.2217 54.0642 79.6913 40.0158 73.5225 33.8683C71.5114 31.865 68.4194 30.6041 64.9354 29.9385C63.5955 28.1068 61.4343 26.3555 58.3745 24.7336C52.693 21.7289 55.6716 22.7369 49.1304 23.8432C49.0286 23.8603 55.264 30.5444 46.6108 26.102C47.6705 26.1984 43.1808 24.7035 44.1568 24.8471C43.9628 24.9781 44.4209 26.0021 44.1568 26.102C43.2407 26.4493 43.0548 26.6379 42.0757 27.0354C41.1873 27.3953 42.0651 27.4437 42.0757 28.3608C47.3375 27.8362 48.9303 27.4748 53.7799 29.6197C53.4156 29.6614 53.0568 29.7116 52.698 29.7618C49.2589 30.2437 46.0979 31.1311 43.8142 32.3313C43.7068 32.387 43.605 32.4473 43.4997 32.505C36.4269 36.4007 34.5781 44.016 36.4783 54.6289C38.3528 65.0612 46.439 102.782 49.3823 116.957C54.2213 118.352 58.7459 119.467 64.0359 119.467C68.5267 119.467 73.9281 118.475 78.105 117.459C76.6381 114.641 71.2055 103.63 70.0425 101.396C68.0168 97.4828 67.6746 105.562 67.5229 105.663ZM76.1181 56.2482C74.2012 56.2482 72.6376 54.6952 72.6376 52.7747C72.6376 50.8632 74.2012 49.3096 76.1181 49.3096C78.0455 49.3096 79.6031 50.8632 79.6031 52.7747C79.6038 53.2308 79.5141 53.6827 79.3392 54.1043C79.1643 54.5259 78.9077 54.909 78.584 55.2316C78.2603 55.5543 77.8758 55.8102 77.4527 55.9846C77.0295 56.1591 76.576 56.2486 76.1181 56.2482ZM78.2148 43.1932C78.2148 43.1932 76.0193 41.9439 74.3156 41.9649C70.8145 42.0106 69.8611 43.5516 69.8611 43.5516C69.8611 43.5516 70.4486 39.8783 74.9258 40.6152C77.3532 41.0172 78.2148 43.1932 78.2148 43.1932ZM41.3012 47.7094C41.3012 47.7094 39.7245 44.2092 43.9265 42.494C48.1332 40.7783 50.1815 43.4703 50.1815 43.4703C50.1815 43.4703 47.1269 42.094 44.1568 43.9532C41.1918 45.8105 41.3012 47.7094 41.3012 47.7094ZM44.9747 55.1695C44.9744 54.6391 45.0791 54.1138 45.2828 53.6237C45.4865 53.1336 45.7852 52.6883 46.1618 52.3133C46.5384 51.9383 46.9856 51.6409 47.4776 51.4381C47.9697 51.2354 48.4971 51.1313 49.0296 51.1318C49.5618 51.1318 50.0888 51.2362 50.5805 51.4392C51.0721 51.6421 51.5189 51.9395 51.8951 52.3145C52.2713 52.6895 52.5697 53.1346 52.7732 53.6245C52.9767 54.1144 53.0813 54.6394 53.081 55.1695C53.081 57.4018 51.2669 59.2058 49.0296 59.2058C48.4971 59.2067 47.9697 59.1029 47.4775 58.9004C46.9854 58.6979 46.5381 58.4006 46.1615 58.0257C45.7848 57.6508 45.4861 57.2055 45.2824 56.7154C45.0788 56.2253 44.9742 55.7 44.9747 55.1695Z" fill="white"/>
<path d="M53.0819 55.1695C53.0822 54.6393 52.9776 54.1143 52.7741 53.6245C52.5706 53.1346 52.2722 52.6894 51.896 52.3145C51.5198 51.9395 51.0731 51.6421 50.5814 51.4391C50.0897 51.2362 49.5627 51.1317 49.0305 51.1317C48.498 51.1313 47.9706 51.2354 47.4786 51.4381C46.9865 51.6408 46.5394 51.9382 46.1627 52.3132C45.7861 52.6882 45.4874 53.1335 45.2837 53.6236C45.08 54.1137 44.9753 54.639 44.9756 55.1695C44.9751 55.6999 45.0797 56.2252 45.2834 56.7153C45.487 57.2055 45.7857 57.6507 46.1624 58.0257C46.5391 58.4006 46.9863 58.6978 47.4784 58.9003C47.9706 59.1028 48.498 59.2066 49.0305 59.2058C51.2679 59.2058 53.0819 57.4017 53.0819 55.1695ZM50.8254 54.8728C50.5469 54.8716 50.2802 54.7606 50.0837 54.564C49.8871 54.3673 49.7768 54.1012 49.7768 53.8237C49.7768 53.5461 49.8875 53.2798 50.0846 53.0835C50.2817 52.8872 50.549 52.7769 50.8277 52.7769C51.1064 52.7769 51.3737 52.8872 51.5708 53.0835C51.7679 53.2798 51.8786 53.5461 51.8786 53.8237C51.8786 53.9615 51.8514 54.0979 51.7984 54.2252C51.7455 54.3525 51.6679 54.4681 51.5701 54.5656C51.4723 54.663 51.3562 54.7402 51.2285 54.793C51.1007 54.8457 50.9637 54.8728 50.8254 54.8728Z" fill="#212121"/>
<path d="M50.825 52.7756C50.5464 52.7762 50.2795 52.8869 50.0828 53.0834C49.8862 53.28 49.776 53.5462 49.7764 53.8237C49.7764 54.403 50.2495 54.8743 50.825 54.8728C51.1043 54.8728 51.3722 54.7623 51.5697 54.5656C51.7672 54.3688 51.8782 54.102 51.8782 53.8237C51.8782 53.686 51.851 53.5496 51.7981 53.4223C51.7452 53.2951 51.6676 53.1795 51.5698 53.0821C51.472 52.9848 51.3558 52.9076 51.228 52.855C51.1002 52.8024 50.9633 52.7754 50.825 52.7756Z" fill="white"/>
<path d="M76.1182 49.3096C74.2013 49.3096 72.6377 50.8631 72.6377 52.7746C72.6377 54.6951 74.2013 56.2482 76.1182 56.2482C76.5761 56.2486 77.0296 56.159 77.4528 55.9845C77.8759 55.8101 78.2603 55.5542 78.5841 55.2316C78.9078 54.9089 79.1644 54.5258 79.3393 54.1042C79.5142 53.6826 79.6039 53.2308 79.6032 52.7746C79.6032 50.8631 78.0456 49.3096 76.1182 49.3096ZM77.6637 52.5191C77.1723 52.5191 76.7667 52.1211 76.7667 51.6211C76.7667 51.1277 77.1723 50.7226 77.6637 50.7226C78.1761 50.7226 78.5692 51.1277 78.5692 51.6211C78.5692 52.1211 78.1761 52.5191 77.6637 52.5191Z" fill="#212121"/>
<path d="M77.6645 50.7227C77.1732 50.7227 76.7676 51.1277 76.7676 51.6212C76.7676 52.1211 77.1732 52.5192 77.6645 52.5192C77.7836 52.5208 77.9017 52.4987 78.012 52.4542C78.1224 52.4097 78.2226 52.3436 78.307 52.26C78.3914 52.1763 78.4581 52.0767 78.5033 51.967C78.5484 51.8573 78.5711 51.7397 78.5701 51.6212C78.5701 51.1277 78.177 50.7227 77.6645 50.7227Z" fill="white"/>
<path d="M50.1819 43.4703C50.1819 43.4703 48.1335 40.7783 43.9269 42.494C39.7248 44.2092 41.3015 47.7094 41.3015 47.7094C41.3015 47.7094 41.1922 45.8104 44.1572 43.9532C47.1272 42.0939 50.1819 43.4703 50.1819 43.4703ZM74.9262 40.6152C70.449 39.8783 69.8614 43.5516 69.8614 43.5516C69.8614 43.5516 70.8148 42.0106 74.3159 41.9649C76.0197 41.9438 78.2152 43.1932 78.2152 43.1932C78.2152 43.1932 77.3535 41.0172 74.9262 40.6152Z" fill="#212121"/>
<path d="M72.6635 63.3972C68.1772 63.6763 61.8411 68.2973 61.435 70.7399C60.9079 73.9489 63.439 77.0234 65.3488 78.3491L65.3644 78.3606C67.2737 79.6838 79.9868 83.956 86.2942 83.8375C92.6086 83.7151 102.979 79.863 101.84 76.7765C100.706 73.6889 90.407 79.5006 79.6648 78.5087C71.7091 77.7724 70.3047 74.222 72.0664 71.6288C74.282 68.3696 78.3178 72.2473 84.9744 70.263C91.6411 68.2843 100.964 64.7424 104.424 62.8139C112.422 58.3721 101.077 56.5299 98.397 57.7622C95.8568 58.9312 87.0152 61.1539 82.9165 62.1393L82.3073 62.2848C78.5612 63.1783 77.1598 63.1146 72.6635 63.3972Z" fill="#FDD209"/>
<path d="M43.8398 102.4C50.8945 103.404 65.9613 103.956 68.7832 98.1333L72.0586 104.659C65.2559 108.674 50.3906 115.551 45.3516 110.933L43.8398 102.4C38.0449 101.145 26.4047 97.4306 26.2031 92.6118C26.0016 87.7929 22.4238 81.7359 20.6602 79.3098L26.4551 74.2902C33.5098 77.051 29.2266 81.0667 31.998 87.0902C32.9576 89.1758 34.4553 90.553 36.0293 91.4377C37.2891 89.6539 39.0527 84.9318 36.0293 80.3137C33.0059 75.6957 31.7461 74.3738 31.4941 74.2902L37.0371 72.7843L41.5723 92.8627L43.8398 102.4Z" fill="#750D5C"/>
<path d="M68.2793 106.667L65.5078 101.145L67.5234 99.8902L70.2949 105.663L68.2793 106.667Z" fill="#E30021"/>
<path d="M59.7129 102.651L62.7363 102.149L65.2559 108.173L61.9805 109.678L59.7129 102.651Z" fill="#E30021"/>
<path d="M51.1465 102.902H54.9258L56.6895 111.435L51.9023 112.439L51.1465 102.902Z" fill="#E30021"/>
<path d="M43.8307 102.435L46.8633 102.651L48.375 112.439L45.0996 111.435L43.342 102.431C41.6063 102.246 38.6365 101.552 37.541 100.643L37.793 92.1098L41.3203 92.3608L43.8307 102.435Z" fill="#E30021"/>
<path d="M37.2891 73.7882L32.25 75.0431L34.0137 77.3019L37.793 76.298L37.2891 73.7882Z" fill="#E30021"/>
<path d="M38.5488 78.8078L35.2734 79.3098C35.5254 79.5608 36.7852 81.6523 37.2891 82.8235L39.3047 81.8196L38.5488 78.8078Z" fill="#E30021"/>
<path d="M40.0605 85.8353H37.541C37.7426 86.6384 37.373 88.5124 37.0371 89.349H40.8164L40.0605 85.8353Z" fill="#E30021"/>
<path d="M35.7773 91.3568L34.2656 99.3882L31.7461 98.3843L29.4785 96.8784C30.8223 94.2013 33.5098 88.9474 33.5098 89.349C33.5098 89.7506 35.0215 90.8549 35.7773 91.3568Z" fill="#E30021"/>
<path d="M32.25 87.5921L26.2031 92.1098C26.2031 91.909 25.5312 89.0144 25.1953 87.5921L31.2422 85.0823L32.25 87.5921Z" fill="#E30021"/>
<path d="M30.9902 80.5647L23.6836 84.5804L22.1719 81.5686L30.2344 77.051C30.8391 77.6533 31.0742 79.6444 30.9902 80.5647Z" fill="#E30021"/>
<path d="M77.7386 37.4379C55.6657 33.8567 39.3711 43.904 33.9829 49.3753C31.1959 44.733 26.7262 30.24 45.0997 23.843C71.0508 14.8079 75.2303 30.3087 77.7386 37.4379Z" fill="#750D5C"/>
<path d="M40.5647 44.4236L36.2815 47.4353C31.9639 38.2469 36.5319 29.8993 39.5663 26.6087C39.636 26.4792 39.7166 26.3924 39.8089 26.353C39.7292 26.4345 39.6483 26.5198 39.5663 26.6087C38.5694 28.4598 39.7798 39.0285 40.5647 44.4236Z" fill="#E30021"/>
<path d="M51.3987 39.404L47.1155 23.3412C48.1233 23.0902 50.3909 22.5381 51.3987 22.3373C52.4065 22.1365 57.1936 32.2928 59.4612 37.3961C58.2518 37.3961 53.5823 38.7347 51.3987 39.404Z" fill="#E30021"/>
<path d="M68.2796 36.6432C68.4811 34.4346 62.8206 25.5164 59.9651 21.3334H61.9808C63.5933 21.3334 71.0511 32.0419 74.5784 37.3961L68.2796 36.6432Z" fill="#E30021"/>
<ellipse cx="46.8633" cy="20.5804" rx="6.04688" ry="5.52157" fill="#E30021"/>
<path d="M41.7879 19.1411C42.1658 24.3949 46.8382 25.8782 48.6695 25.0396C44.1819 23.6011 41.9725 20.0219 41.7879 19.1411Z" fill="#B1001A"/>
</g>
<defs>
<clipPath id="clip0_4_20840">
<rect width="129" height="128" fill="white"/>
</clipPath>
</defs>
</svg>
