<svg width="129" height="129" viewBox="0 0 129 129" fill="none" xmlns="http://www.w3.org/2000/svg">
<g clip-path="url(#clip0_4_20844)">
<path d="M64.5735 9.53137C94.8089 9.53137 119.319 34.138 119.319 64.4919C119.319 94.8454 94.8089 119.452 64.5735 119.452C34.3386 119.452 9.82812 94.8454 9.82812 64.4919C9.82812 34.138 34.3386 9.53137 64.5735 9.53137Z" fill="#FF304D"/>
<path d="M64.5723 128.961C100.039 128.961 128.79 100.096 128.79 64.4909C128.79 28.8854 100.039 0.0212402 64.5723 0.0212402C29.1059 0.0212402 0.354492 28.8854 0.354492 64.4909C0.354492 100.096 29.1059 128.961 64.5723 128.961ZM64.5723 123.588C32.0613 123.588 5.70598 97.1294 5.70598 64.4909C5.70598 31.8524 32.0613 5.39371 64.5723 5.39371C97.0833 5.39371 123.439 31.8524 123.439 64.4909C123.439 97.1294 97.0833 123.588 64.5723 123.588Z" fill="#FF304D"/>
<path d="M37.9038 27.3834C37.8932 26.4592 38.5619 25.9416 39.4503 25.5789C39.0436 25.6457 38.6541 25.7479 38.3034 25.9057C37.3772 26.3271 36.6849 27.9227 36.6914 28.678C41.1878 28.2217 47.8368 28.5373 52.699 29.9943C53.0578 29.9437 53.4166 29.8931 53.7809 29.8511C48.9313 27.6895 43.1656 26.8548 37.9038 27.3834ZM38.8254 21.8288C38.9267 21.8106 39.0295 21.798 39.1313 21.7808C38.1613 21.9017 37.6498 22.2497 36.9217 22.3696C37.7123 22.4399 40.708 23.8437 42.5906 24.6157C42.8547 24.5151 43.0925 24.4033 43.2865 24.2712C42.3105 24.1265 39.8852 21.926 38.8254 21.8288ZM43.5007 32.7589C43.2311 32.8631 42.9751 32.9719 42.7534 33.0887C35.4241 36.9653 32.1865 46.0201 34.1159 56.8703C35.8771 66.7441 43.0955 100.48 46.4007 116.347C47.3656 116.688 48.3422 117.004 49.3309 117.291C46.3876 103.005 38.3538 65.5694 36.4793 55.0557C34.579 44.3598 36.4279 36.6851 43.5007 32.7589Z" fill="#D5D7D8"/>
<path d="M67.5229 106.488C67.402 106.569 70.2944 107.247 70.5464 106.994C70.7983 107.247 70.2959 105.055 70.0425 105.224C68.5287 106.232 71.0402 104.973 68.7827 104.465C68.3942 104.378 70.0203 105.167 69.7905 104.971C65.9361 107.119 68.8108 104.971 68.7827 104.465C68.6578 102.216 69.5355 105.219 69.7905 101.935C69.9765 99.4566 59.8167 100.58 64.0359 102.686C64.9687 101.811 69.9055 103.2 69.9055 101.935C66.8493 94.4681 63.9664 85.0181 65.3481 78.9612C63.4383 77.6252 60.9072 74.5266 61.4343 71.2925C61.8404 68.8309 68.1765 64.1738 72.6628 63.8925C77.1592 63.6077 78.5605 63.6719 82.3066 62.7715L82.9158 62.6248C85.2217 54.4866 79.6913 40.3285 73.5225 34.133C71.5114 32.114 68.4194 30.8432 64.9354 30.1724C63.5955 28.3264 61.4343 26.5614 58.3745 24.9269C52.693 21.8987 45.6716 20.6659 39.1304 21.7808C39.0286 21.798 38.9258 21.8107 38.8245 21.8289C39.8842 21.926 42.3095 24.1266 43.2856 24.2713C43.0916 24.4033 42.8537 24.5151 42.5897 24.6158C41.6736 24.9659 40.4284 25.1783 39.4493 25.579C38.561 25.9417 37.8923 26.4592 37.9028 27.3835C43.1646 26.8548 48.9303 27.6895 53.7799 29.8512C53.4156 29.8932 53.0568 29.9437 52.698 29.9943C49.2589 30.48 46.0979 31.3744 43.8142 32.5839C43.7068 32.6401 43.605 32.7008 43.4997 32.759C36.4269 36.6851 34.5781 44.3599 36.4783 55.0557C38.3528 65.5695 46.439 103.585 49.3823 117.871C54.2213 119.276 58.7459 120.4 64.0359 120.4C68.5267 120.4 73.9281 119.401 78.105 118.377C76.6381 115.537 71.2055 104.44 70.0425 102.188C68.0168 98.2444 67.6746 106.387 67.5229 106.488ZM76.1181 56.6877C74.2012 56.6877 72.6376 55.1225 72.6376 53.187C72.6376 51.2606 74.2012 49.6949 76.1181 49.6949C78.0455 49.6949 79.6031 51.2606 79.6031 53.187C79.6038 53.6467 79.5141 54.1021 79.3392 54.527C79.1643 54.9519 78.9077 55.338 78.584 55.6632C78.2603 55.9883 77.8758 56.2462 77.4527 56.422C77.0295 56.5978 76.576 56.6881 76.1181 56.6877ZM78.2148 43.5307C78.2148 43.5307 76.0193 42.2716 74.3156 42.2928C70.8145 42.3389 69.8611 43.8919 69.8611 43.8919C69.8611 43.8919 70.4486 40.1899 74.9258 40.9325C77.3532 41.3377 78.2148 43.5307 78.2148 43.5307ZM41.3012 48.0822C41.3012 48.0822 39.7245 44.5546 43.9265 42.826C48.1332 41.0969 50.1815 43.81 50.1815 43.81C50.1815 43.81 47.1269 42.4228 44.1568 44.2966C41.1918 46.1684 41.3012 48.0822 41.3012 48.0822ZM44.9747 55.6006C44.9744 55.066 45.0791 54.5366 45.2828 54.0427C45.4865 53.5487 45.7852 53.0999 46.1618 52.722C46.5384 52.3441 46.9856 52.0444 47.4776 51.84C47.9697 51.6357 48.4971 51.5308 49.0296 51.5313C49.5618 51.5313 50.0888 51.6365 50.5805 51.8411C51.0721 52.0456 51.5189 52.3454 51.8951 52.7233C52.2713 53.1012 52.5697 53.5498 52.7732 54.0435C52.9767 54.5372 53.0813 55.0663 53.081 55.6006C53.081 57.8502 51.2669 59.6684 49.0296 59.6684C48.4971 59.6692 47.9697 59.5646 47.4775 59.3606C46.9854 59.1565 46.5381 58.8569 46.1615 58.4791C45.7848 58.1012 45.4861 57.6524 45.2824 57.1585C45.0788 56.6646 44.9742 56.1352 44.9747 55.6006Z" fill="white"/>
<path d="M67.1913 55.6004C67.1916 55.0662 67.087 54.537 66.8835 54.0433C66.68 53.5496 66.3816 53.101 66.0054 52.7231C65.6292 52.3452 65.1824 52.0455 64.6908 51.8409C64.1991 51.6364 63.6721 51.5311 63.1399 51.5311C62.6074 51.5307 62.08 51.6356 61.5879 51.8399C61.0959 52.0442 60.6487 52.3439 60.2721 52.7219C59.8955 53.0998 59.5968 53.5486 59.3931 54.0425C59.1894 54.5365 59.0847 55.0659 59.085 55.6004C59.0845 56.135 59.1891 56.6644 59.3927 57.1584C59.5964 57.6523 59.8951 58.1011 60.2718 58.4789C60.6484 58.8568 61.0957 59.1563 61.5878 59.3604C62.08 59.5645 62.6074 59.6691 63.1399 59.6682C65.3772 59.6682 67.1913 57.8501 67.1913 55.6004ZM64.9348 55.3015C64.6563 55.3003 64.3896 55.1883 64.193 54.9902C63.9965 54.792 63.8862 54.5238 63.8862 54.2442C63.8862 53.9644 63.9969 53.696 64.194 53.4982C64.3911 53.3003 64.6584 53.1892 64.9371 53.1892C65.2158 53.1892 65.4831 53.3003 65.6802 53.4982C65.8773 53.696 65.988 53.9644 65.988 54.2442C65.988 54.383 65.9607 54.5205 65.9078 54.6488C65.8549 54.7771 65.7773 54.8936 65.6795 54.9918C65.5817 55.09 65.4656 55.1679 65.3378 55.221C65.2101 55.2741 65.0731 55.3015 64.9348 55.3015Z" fill="#2D4F8E"/>
<path d="M49.6233 50.5883C48.2209 50.5908 46.8768 51.1249 45.8868 52.0731C44.8968 53.0213 44.3417 54.306 44.3438 55.6446C44.3438 58.4392 46.726 60.7132 49.6233 60.7059C51.0296 60.7059 52.3783 60.1727 53.3727 59.2235C54.3671 58.2743 54.9258 56.987 54.9258 55.6446C54.9261 54.9801 54.7891 54.3221 54.5227 53.7082C54.2563 53.0942 53.8657 52.5365 53.3732 52.0668C52.8807 51.5972 52.2959 51.2248 51.6525 50.9711C51.0091 50.7174 50.3195 50.5873 49.6233 50.5883Z" fill="white"/>
<path d="M45.3385 39.9647C43.7357 39.9673 42.1997 40.5014 41.0682 41.4496C39.9367 42.3978 39.3024 43.6824 39.3047 45.0211C39.3047 47.8157 42.0273 50.0896 45.3385 50.0824C46.9457 50.0824 48.4871 49.5491 49.6235 48.6C50.76 47.6508 51.3984 46.3634 51.3984 45.0211C51.3988 44.3566 51.2423 43.6985 50.9378 43.0846C50.6333 42.4707 50.1869 41.9129 49.624 41.4433C49.0612 40.9736 48.3929 40.6013 47.6576 40.3476C46.9222 40.0939 46.1341 39.9638 45.3385 39.9647Z" fill="white"/>
<path d="M73.0534 38.447C71.4505 38.4492 69.9145 38.9032 68.783 39.7092C67.6515 40.5151 67.0172 41.6071 67.0195 42.745C67.0195 45.1203 69.7422 47.0532 73.0534 47.047C74.6605 47.047 76.2019 46.5938 77.3384 45.787C78.4748 44.9802 79.1133 43.8859 79.1133 42.745C79.1137 42.1801 78.9571 41.6208 78.6526 41.0989C78.3482 40.5771 77.9017 40.103 77.3389 39.7038C76.776 39.3046 76.1078 38.9881 75.3724 38.7725C74.637 38.5568 73.849 38.4462 73.0534 38.447Z" fill="white"/>
<path d="M76.1182 49.6948C74.2013 49.6948 72.6377 51.2605 72.6377 53.1869C72.6377 55.1224 74.2013 56.6876 76.1182 56.6876C76.5761 56.688 77.0296 56.5977 77.4528 56.4219C77.8759 56.2461 78.2603 55.9882 78.5841 55.6631C78.9078 55.3379 79.1644 54.9518 79.3393 54.5269C79.5142 54.102 79.6039 53.6467 79.6032 53.1869C79.6032 51.2605 78.0456 49.6948 76.1182 49.6948ZM77.6637 52.9294C77.1723 52.9294 76.7667 52.5283 76.7667 52.0244C76.7667 51.5271 77.1723 51.1189 77.6637 51.1189C78.1761 51.1189 78.5692 51.5271 78.5692 52.0244C78.5692 52.5283 78.1761 52.9294 77.6637 52.9294Z" fill="#2D4F8E"/>
<path d="M77.6645 51.1189C77.1732 51.1189 76.7676 51.5271 76.7676 52.0244C76.7676 52.5283 77.1732 52.9294 77.6645 52.9294C77.7836 52.9311 77.9017 52.9088 78.012 52.8639C78.1224 52.8191 78.2226 52.7525 78.307 52.6682C78.3914 52.5839 78.4581 52.4835 78.5033 52.373C78.5484 52.2624 78.5711 52.1439 78.5701 52.0244C78.5701 51.5271 78.177 51.1189 77.6645 51.1189Z" fill="white"/>
<path d="M74.8985 47.7732C74.8985 47.7732 76.1373 50.4029 78.5576 48.6708C80.9753 46.9392 80.8767 41.9884 80.8767 41.9884C80.8767 41.9884 80.0935 45.3775 78.3986 47.2364C76.7008 49.0973 74.8985 47.7732 74.8985 47.7732ZM58.7533 51.6C61.3731 52.28 63.4371 47.8936 63.4371 47.8936C63.4371 47.8936 62.9083 49.4206 60.8702 49.5013C59.8785 49.5394 51.9507 46.7941 51.9507 46.7941C51.9507 46.7941 57.3329 51.2289 58.7533 51.6Z" fill="url(#paint0_linear_4_20844)"/>
<path d="M76.09 37.6882C76.6946 33.6412 77.6018 22.0059 72.0588 18.7177L73.0666 26.5588L71.5549 30.8588L68.2794 33.8941L76.09 37.6882Z" fill="#A6001A"/>
<path d="M32.754 32.3765C32.5525 42.4941 37.5412 37.6882 45.0997 38.7L42.0763 49.8294C28.9449 51.9938 29.2808 33.288 33.17 22.8732C33.3037 21.6838 33.431 21.649 33.51 22.0059C33.3939 22.2878 33.2805 22.5772 33.17 22.8732C33.0194 24.2128 32.8608 27.0172 32.754 32.3765Z" fill="#A6001A"/>
<path d="M72.6635 63.8924C68.1772 64.1737 61.8411 68.8308 61.435 71.2924C60.9079 74.5265 63.439 77.6251 65.3488 78.9611L65.3644 78.9727C67.2737 80.3062 79.9868 84.6118 86.2942 84.4924C92.6086 84.369 102.979 80.4868 101.84 77.3762C100.706 74.2645 90.407 80.1216 79.6648 79.122C71.7091 78.3798 70.3047 74.8017 72.0664 72.1883C74.282 68.9037 78.3178 72.8116 84.9744 70.8118C91.6411 68.8177 100.964 65.2481 104.424 63.3045C112.422 58.828 101.077 56.9714 98.397 58.2133C95.8568 59.3915 87.0152 61.6316 82.9165 62.6246L82.3073 62.7713C78.5612 63.6718 77.1598 63.6076 72.6635 63.8924Z" fill="#FDD209"/>
</g>
<defs>
<linearGradient id="paint0_linear_4_20844" x1="-1468.94" y1="-625.519" x2="69.361" y2="-652.218" gradientUnits="userSpaceOnUse">
<stop stop-color="#394A9F"/>
<stop offset="1" stop-color="#6176B9"/>
</linearGradient>
<clipPath id="clip0_4_20844">
<rect width="129" height="129" fill="white"/>
</clipPath>
</defs>
</svg>
