<svg width="129" height="129" viewBox="0 0 129 129" fill="none" xmlns="http://www.w3.org/2000/svg">
<g clip-path="url(#clip0_4_20842)">
<path d="M64.5735 9.53137C94.8089 9.53137 119.319 34.138 119.319 64.4919C119.319 94.8454 94.8089 119.452 64.5735 119.452C34.3386 119.452 9.82812 94.8454 9.82812 64.4919C9.82812 34.138 34.3386 9.53137 64.5735 9.53137Z" fill="#178C3D"/>
<path d="M64.5723 128.961C100.039 128.961 128.79 100.096 128.79 64.4909C128.79 28.8854 100.039 0.0212402 64.5723 0.0212402C29.1059 0.0212402 0.354492 28.8854 0.354492 64.4909C0.354492 100.096 29.1059 128.961 64.5723 128.961ZM64.5723 123.588C32.0613 123.588 5.70598 97.1294 5.70598 64.4909C5.70598 31.8524 32.0613 5.39371 64.5723 5.39371C97.0833 5.39371 123.439 31.8524 123.439 64.4909C123.439 97.1294 97.0833 123.588 64.5723 123.588Z" fill="#178C3D"/>
<path d="M37.9038 27.3834C37.8932 26.4592 38.5619 25.9416 39.4503 25.5789C39.0436 25.6457 38.6541 25.7479 38.3034 25.9057C37.3772 26.3271 36.6849 27.9227 36.6914 28.678C41.1878 28.2217 47.8368 28.5373 52.699 29.9943C53.0578 29.9437 53.4166 29.8931 53.7809 29.8511C48.9313 27.6895 43.1656 26.8548 37.9038 27.3834ZM38.8254 21.8288C38.9267 21.8106 39.0295 21.798 39.1313 21.7808C38.1613 21.9017 37.6498 22.2497 36.9217 22.3696C37.7123 22.4399 40.708 23.8437 42.5906 24.6157C42.8547 24.5151 43.0925 24.4033 43.2865 24.2712C42.3105 24.1265 39.8852 21.926 38.8254 21.8288ZM43.5007 32.7589C43.2311 32.8631 42.9751 32.9719 42.7534 33.0887C35.4241 36.9653 32.1865 46.0201 34.1159 56.8703C35.8771 66.7441 43.0955 100.48 46.4007 116.347C47.3656 116.688 48.3422 117.004 49.3309 117.291C46.3876 103.005 38.3538 65.5694 36.4793 55.0557C34.579 44.3598 36.4279 36.6851 43.5007 32.7589Z" fill="#D5D7D8"/>
<path d="M67.5229 106.488C67.402 106.569 70.2944 107.247 70.5464 106.994C70.7983 107.247 70.2959 105.055 70.0425 105.224C68.5287 106.232 71.0402 104.973 68.7827 104.465C68.3942 104.378 70.0203 105.167 69.7905 104.971C65.9361 107.119 68.8108 104.971 68.7827 104.465C68.6578 102.216 69.5355 105.219 69.7905 101.935C69.9765 99.4566 59.8167 100.58 64.0359 102.686C64.9687 101.811 69.9055 103.2 69.9055 101.935C66.8493 94.4681 63.9664 85.0181 65.3481 78.9612C63.4383 77.6252 60.9072 74.5266 61.4343 71.2925C61.8404 68.8309 68.1765 64.1738 72.6628 63.8925C77.1592 63.6077 78.5605 63.6719 82.3066 62.7715L82.9158 62.6248C85.2217 54.4866 79.6913 40.3285 73.5225 34.133C71.5114 32.114 68.4194 30.8432 64.9354 30.1724C63.5955 28.3264 61.4343 26.5614 58.3745 24.9269C52.693 21.8987 45.6716 20.6659 39.1304 21.7808C39.0286 21.798 38.9258 21.8107 38.8245 21.8289C39.8842 21.926 42.3095 24.1266 43.2856 24.2713C43.0916 24.4033 42.8537 24.5151 42.5897 24.6158C41.6736 24.9659 40.4284 25.1783 39.4493 25.579C38.561 25.9417 37.8923 26.4592 37.9028 27.3835C43.1646 26.8548 48.9303 27.6895 53.7799 29.8512C53.4156 29.8932 53.0568 29.9437 52.698 29.9943C49.2589 30.48 46.0979 31.3744 43.8142 32.5839C43.7068 32.6401 43.605 32.7008 43.4997 32.759C36.4269 36.6851 34.5781 44.3599 36.4783 55.0557C38.3528 65.5695 46.439 103.585 49.3823 117.871C54.2213 119.276 58.7459 120.4 64.0359 120.4C68.5267 120.4 73.9281 119.401 78.105 118.377C76.6381 115.537 71.2055 104.44 70.0425 102.188C68.0168 98.2444 67.6746 106.387 67.5229 106.488ZM76.1181 56.6877C74.2012 56.6877 72.6376 55.1225 72.6376 53.187C72.6376 51.2606 74.2012 49.6949 76.1181 49.6949C78.0455 49.6949 79.6031 51.2606 79.6031 53.187C79.6038 53.6467 79.5141 54.1021 79.3392 54.527C79.1643 54.9519 78.9077 55.338 78.584 55.6632C78.2603 55.9883 77.8758 56.2462 77.4527 56.422C77.0295 56.5978 76.576 56.6881 76.1181 56.6877ZM78.2148 43.5307C78.2148 43.5307 76.0193 42.2716 74.3156 42.2928C70.8145 42.3389 69.8611 43.8919 69.8611 43.8919C69.8611 43.8919 70.4486 40.1899 74.9258 40.9325C77.3532 41.3377 78.2148 43.5307 78.2148 43.5307ZM41.3012 48.0822C41.3012 48.0822 39.7245 44.5546 43.9265 42.826C48.1332 41.0969 50.1815 43.81 50.1815 43.81C50.1815 43.81 47.1269 42.4228 44.1568 44.2966C41.1918 46.1684 41.3012 48.0822 41.3012 48.0822ZM44.9747 55.6006C44.9744 55.066 45.0791 54.5366 45.2828 54.0427C45.4865 53.5487 45.7852 53.0999 46.1618 52.722C46.5384 52.3441 46.9856 52.0444 47.4776 51.84C47.9697 51.6357 48.4971 51.5308 49.0296 51.5313C49.5618 51.5313 50.0888 51.6365 50.5805 51.8411C51.0721 52.0456 51.5189 52.3454 51.8951 52.7233C52.2713 53.1012 52.5697 53.5498 52.7732 54.0435C52.9767 54.5372 53.0813 55.0663 53.081 55.6006C53.081 57.8502 51.2669 59.6684 49.0296 59.6684C48.4971 59.6692 47.9697 59.5646 47.4775 59.3606C46.9854 59.1565 46.5381 58.8569 46.1615 58.4791C45.7848 58.1012 45.4861 57.6524 45.2824 57.1585C45.0788 56.6646 44.9742 56.1352 44.9747 55.6006Z" fill="white"/>
<path d="M53.0819 55.6006C53.0822 55.0663 52.9776 54.5372 52.7741 54.0435C52.5706 53.5498 52.2722 53.1011 51.896 52.7233C51.5198 52.3454 51.0731 52.0456 50.5814 51.8411C50.0897 51.6365 49.5627 51.5313 49.0305 51.5313C48.498 51.5308 47.9706 51.6357 47.4786 51.84C46.9865 52.0444 46.5394 52.3441 46.1627 52.722C45.7861 53.0999 45.4874 53.5487 45.2837 54.0426C45.08 54.5366 44.9753 55.066 44.9756 55.6006C44.9751 56.1351 45.0797 56.6646 45.2834 57.1585C45.487 57.6524 45.7857 58.1012 46.1624 58.4791C46.5391 58.8569 46.9863 59.1565 47.4784 59.3605C47.9706 59.5646 48.498 59.6692 49.0305 59.6684C51.2679 59.6684 53.0819 57.8502 53.0819 55.6006ZM50.8254 55.3016C50.5469 55.3004 50.2802 55.1885 50.0837 54.9903C49.8871 54.7922 49.7768 54.5239 49.7768 54.2443C49.7768 53.9645 49.8875 53.6961 50.0846 53.4983C50.2817 53.3004 50.549 53.1893 50.8277 53.1893C51.1064 53.1893 51.3737 53.3004 51.5708 53.4983C51.7679 53.6961 51.8786 53.9645 51.8786 54.2443C51.8786 54.3831 51.8514 54.5206 51.7984 54.6489C51.7455 54.7772 51.6679 54.8937 51.5701 54.9919C51.4723 55.0901 51.3562 55.168 51.2285 55.2211C51.1007 55.2742 50.9637 55.3016 50.8254 55.3016Z" fill="#2D4F8E"/>
<path d="M50.825 53.188C50.5464 53.1885 50.2795 53.3001 50.0828 53.4982C49.8862 53.6963 49.776 53.9646 49.7764 54.2443C49.7764 54.8281 50.2495 55.3031 50.825 55.3016C51.1043 55.3016 51.3722 55.1902 51.5697 54.9919C51.7672 54.7936 51.8782 54.5247 51.8782 54.2443C51.8782 54.1055 51.851 53.968 51.7981 53.8397C51.7452 53.7115 51.6676 53.595 51.5698 53.4969C51.472 53.3987 51.3558 53.321 51.228 53.268C51.1002 53.215 50.9633 53.1878 50.825 53.188Z" fill="white"/>
<path d="M76.1182 49.6948C74.2013 49.6948 72.6377 51.2605 72.6377 53.1869C72.6377 55.1224 74.2013 56.6876 76.1182 56.6876C76.5761 56.688 77.0296 56.5977 77.4528 56.4219C77.8759 56.2461 78.2603 55.9882 78.5841 55.6631C78.9078 55.3379 79.1644 54.9518 79.3393 54.5269C79.5142 54.102 79.6039 53.6467 79.6032 53.1869C79.6032 51.2605 78.0456 49.6948 76.1182 49.6948ZM77.6637 52.9294C77.1723 52.9294 76.7667 52.5283 76.7667 52.0244C76.7667 51.5271 77.1723 51.1189 77.6637 51.1189C78.1761 51.1189 78.5692 51.5271 78.5692 52.0244C78.5692 52.5283 78.1761 52.9294 77.6637 52.9294Z" fill="#2D4F8E"/>
<path d="M77.6645 51.1189C77.1732 51.1189 76.7676 51.5271 76.7676 52.0244C76.7676 52.5283 77.1732 52.9294 77.6645 52.9294C77.7836 52.9311 77.9017 52.9088 78.012 52.8639C78.1224 52.8191 78.2226 52.7525 78.307 52.6682C78.3914 52.5839 78.4581 52.4835 78.5033 52.373C78.5484 52.2624 78.5711 52.1439 78.5701 52.0244C78.5701 51.5271 78.177 51.1189 77.6645 51.1189Z" fill="white"/>
<path d="M50.1819 43.8099C50.1819 43.8099 48.1335 41.0969 43.9269 42.826C39.7248 44.5546 41.3015 48.0821 41.3015 48.0821C41.3015 48.0821 41.1922 46.1683 44.1572 44.2966C47.1272 42.4228 50.1819 43.8099 50.1819 43.8099ZM74.9262 40.9324C70.449 40.1898 69.8614 43.8919 69.8614 43.8919C69.8614 43.8919 70.8148 42.3388 74.3159 42.2928C76.0197 42.2715 78.2152 43.5307 78.2152 43.5307C78.2152 43.5307 77.3535 41.3377 74.9262 40.9324Z" fill="url(#paint0_linear_4_20842)"/>
<path d="M72.6635 63.8924C68.1772 64.1737 61.8411 68.8308 61.435 71.2924C60.9079 74.5265 63.439 77.6251 65.3488 78.9611L65.3644 78.9727C67.2737 80.3062 79.9868 84.6118 86.2942 84.4924C92.6086 84.369 102.979 80.4868 101.84 77.3762C100.706 74.2645 90.407 80.1216 79.6648 79.122C71.7091 78.3798 70.3047 74.8017 72.0664 72.1883C74.282 68.9037 78.3178 72.8116 84.9744 70.8118C91.6411 68.8177 100.964 65.2481 104.424 63.3045C112.422 58.828 101.077 56.9714 98.397 58.2133C95.8568 59.3915 87.0152 61.6316 82.9165 62.6246L82.3073 62.7713C78.5612 63.6718 77.1598 63.6076 72.6635 63.8924Z" fill="#FDD209"/>
<path d="M30.781 38.7574C32.5114 36.6369 36.3996 33.3501 38.1096 37.1671C39.8196 40.984 37.8043 42.3623 36.5828 42.5744C39.0257 43.7407 42.969 47.8013 39.3047 48.5647C37.5743 50.049 34.0178 50.7808 33.5292 47.9817C32.4096 49.9962 29.8038 53.3254 28.3381 50.5263C26.5059 47.0274 27.1167 46.7094 28.3381 46.0732C26.6078 45.5431 23.3914 44.1011 24.3685 42.5744C25.2386 41.2148 27.3033 41.7721 28.5357 42.3597C27.0252 41.5252 25.1078 39.92 27.1168 38.7574C29.3153 37.4851 30.4757 38.2273 30.781 38.7574Z" fill="#FF304D"/>
<path d="M39.8086 31.6176C41.2244 29.5633 44.2574 27.344 45.6565 31.0417C47.0556 34.7393 45.4066 36.0746 44.4073 36.28C46.406 37.4099 49.6539 39.8544 46.6558 40.5939C45.2401 42.0319 42.3086 44.2299 41.9089 41.5183C40.9928 43.4699 38.8608 46.695 37.6616 43.9834C36.1625 40.5939 36.6622 40.2858 37.6616 39.6695C36.2458 39.156 33.6142 37.7591 34.4137 36.28C35.1448 34.9276 36.9062 35.5331 37.9029 36.1179C36.476 35.1616 33.3341 32.1979 35.0215 31.0417C36.8203 29.8091 39.9569 30.9058 39.8086 31.6176Z" fill="#E557AD"/>
<path d="M50.6426 30.2451C52.4254 28.3897 54.4064 25.5137 56.1682 28.8535C57.9301 32.1933 55.8536 33.3994 54.5952 33.5849C57.1121 34.6054 61.2021 36.8134 57.4267 37.4814C55.6439 38.7802 51.9524 40.7655 51.449 38.3163C50.2954 40.079 47.6107 42.992 46.1006 40.5429C44.2129 37.4814 44.8421 37.203 46.1006 36.6464C44.3178 36.1826 41.004 34.9208 42.0107 33.5849C42.9072 32.3953 45.0344 32.883 46.3042 33.3971C44.7479 32.6669 42.7724 31.2624 44.8422 30.2451C47.1075 29.1318 50.328 29.7812 50.6426 30.2451Z" fill="#FF304D"/>
<path d="M64.5504 30.1334C66.7935 30.7179 70.7175 32.5654 68.4684 35.2801C66.2192 37.9948 64.431 36.9196 63.818 36.0427C63.8427 38.3714 63.4082 42.3827 61.4732 39.7979C59.7106 38.9835 56.6686 37.0065 58.6017 35.6133C56.6651 35.4674 53.1845 34.6365 54.7554 32.4804C56.719 29.7853 57.1856 30.1471 58.1189 30.8707C57.8779 29.3282 55.4291 25.8001 59.2902 26.5069C60.632 26.7526 60.9829 28.5247 60.9969 29.6886C61.0662 28.2073 61.567 26.123 63.1921 27.2728C64.9681 28.5293 64.8376 29.7035 64.5504 30.1334Z" fill="#E557AD"/>
<path d="M70.7988 30.6059C72.2266 28.9196 74.0723 25.6782 75.4833 28.7135C76.8942 31.7488 75.2313 32.8449 74.2235 33.0135C76.2391 33.9409 79.5145 35.9476 76.4911 36.5547C75.0633 37.7351 72.1071 39.5394 71.704 37.3135C70.7801 38.9155 68.6301 41.5629 67.4208 39.337C65.909 36.5547 66.4129 36.3017 67.4208 35.7958C65.9931 35.3743 63.3392 34.2276 64.1455 33.0135C64.8634 31.9323 66.5669 32.3755 67.5838 32.8428C66.3375 32.1792 64.7554 30.9027 66.413 29.9782C68.2271 28.9664 70.5469 30.1843 70.7988 30.6059Z" fill="#FF304D"/>
<ellipse cx="32.25" cy="43.5058" rx="2.01562" ry="2.02353" fill="#F9C23C"/>
<ellipse cx="41.5723" cy="37.6882" rx="1.76367" ry="1.77059" fill="#F9C23C"/>
<ellipse cx="50.6426" cy="34.4" rx="2.26758" ry="2.02353" fill="#F9C23C"/>
<ellipse cx="61.7285" cy="33.1353" rx="1.25977" ry="1.26471" fill="#F9C23C"/>
<ellipse cx="70.7988" cy="33.6412" rx="1.25977" ry="1.26471" fill="#F9C23C"/>
</g>
<defs>
<linearGradient id="paint0_linear_4_20842" x1="2682.64" y1="765.644" x2="41.0117" y2="765.644" gradientUnits="userSpaceOnUse">
<stop stop-color="#394A9F"/>
<stop offset="1" stop-color="#6176B9"/>
</linearGradient>
<clipPath id="clip0_4_20842">
<rect width="129" height="129" fill="white"/>
</clipPath>
</defs>
</svg>
