<svg width="129" height="129" viewBox="0 0 129 129" fill="none" xmlns="http://www.w3.org/2000/svg">
<g clip-path="url(#clip0_76_1939)">
<path d="M64.5735 9.53137C94.8089 9.53137 119.319 34.138 119.319 64.4919C119.319 94.8454 94.8089 119.452 64.5735 119.452C34.3386 119.452 9.82812 94.8454 9.82812 64.4919C9.82812 34.138 34.3386 9.53137 64.5735 9.53137Z" fill="#12ABDB"/>
<path d="M64.5723 128.961C100.039 128.961 128.79 100.096 128.79 64.4909C128.79 28.8854 100.039 0.0212402 64.5723 0.0212402C29.1059 0.0212402 0.354492 28.8854 0.354492 64.4909C0.354492 100.096 29.1059 128.961 64.5723 128.961ZM64.5723 123.588C32.0613 123.588 5.70598 97.1294 5.70598 64.4909C5.70598 31.8524 32.0613 5.39371 64.5723 5.39371C97.0833 5.39371 123.439 31.8524 123.439 64.4909C123.439 97.1294 97.0833 123.588 64.5723 123.588Z" fill="#12ABDB"/>
<path d="M77.5724 25.0023C72.2488 25.1273 67.6451 27.4898 65.1064 32.2924C62.5677 37.097 62.0562 44.5993 65.7884 55.114V55.1519C66.3947 56.9327 66.2431 58.7894 65.2959 60.1534C64.3486 61.5364 62.8519 62.3511 61.1468 62.9005C57.7367 63.9993 53.133 64.113 48.0177 63.753C38.7914 63.0899 28.0494 60.7786 21.0434 58.4673C20.6001 69.1335 23.5593 80.0081 29.6218 88.2493C36.1011 97.0589 45.9527 102.932 59.1765 102.686C67.7588 102.534 77.8945 101.284 85.7379 97.8546C93.5812 94.4444 98.9996 89.1776 99.2459 80.3491V80.3302C99.3595 76.579 95.7599 71.4069 92.3687 66.178C90.6826 63.5636 89.0912 60.9112 88.2197 58.1452C87.3482 55.3981 87.2724 52.4048 88.8259 49.7146L88.8638 49.6577L88.9017 49.6009C93.1076 43.4247 92.4445 37.3812 89.6406 32.6941C86.8556 27.9975 81.7783 24.9038 77.5724 25.0023Z" fill="#F9C23C"/>
<path d="M78.2238 25.0023C73.1212 25.1278 68.7086 27.4996 66.2753 32.3212C63.8421 37.1448 63.3518 44.6767 66.9291 55.2329V55.271C67.5101 57.0589 67.3649 58.9228 66.4569 60.2923C65.549 61.6807 64.1144 62.4986 62.4801 63.0502C59.2116 64.1534 54.799 64.2675 49.8961 63.9061C41.0528 63.2404 30.7567 60.9199 24.0416 58.5995C23.6167 69.3078 26.4531 80.2254 32.2639 88.4992C38.4742 97.3435 47.9168 103.24 60.5916 102.993C68.8176 102.84 78.5325 101.585 86.0503 98.1424C93.568 94.7187 98.7614 89.4311 98.9975 80.5678V80.5487C99.1064 76.7827 95.6563 71.5902 92.4058 66.3407C90.7897 63.7159 89.2644 61.0531 88.4291 58.2761C87.5938 55.5182 87.5211 52.513 89.0101 49.8122L89.0465 49.7551L89.0828 49.6981C93.114 43.4975 92.4785 37.4301 89.791 32.7245C87.1216 28.0094 82.2551 24.9034 78.2238 25.0023ZM80.5 67.5C81.6803 70.0867 83.0722 72.5413 82.0916 74.9568C81.1111 77.3724 79.3133 79.4836 77.0617 81.4046C72.5764 85.2087 66.239 88.1568 60.065 89.9257C53.891 91.6945 48.0076 92.3603 43.9582 90.8386C41.9244 90.0778 40.2175 88.4421 39.9269 86.1787C39.6364 83.8963 42.5388 80.853 44.5 78L43.5 79.5C41.7931 81.9726 42.391 84.6251 42.5 85.5C42.6271 86.3939 43.7221 87.1107 45.0477 87.6242C47.717 88.6133 53.3826 88.2899 59.2116 86.6162C65.0224 84.9614 71.0693 82.0894 75.0097 78.7418C76.9709 77.0681 80.8281 74.6738 81.5 73C82.19 71.3262 82.299 70.2499 81.5 68.5L80.5 67.5Z" fill="#FDD209"/>
<path d="M91.4194 41.9533C89.2677 42.0905 86.2287 44.3615 86.0339 45.5619C85.7811 47.139 86.9951 48.65 87.9111 49.3015L87.9186 49.3072C88.8343 49.9574 94.9318 52.057 97.957 51.9988C100.986 51.9386 105.959 50.0455 105.413 48.5286C104.869 47.0112 99.9296 49.8674 94.7773 49.3799C90.9616 49.0181 90.288 47.2732 91.133 45.9988C92.1957 44.397 94.1313 46.3027 97.324 45.3276C100.521 44.3551 104.993 42.6145 106.652 41.6667C110.489 39.4837 105.047 38.5784 103.762 39.184C102.543 39.7585 98.3028 40.8509 96.3369 41.3351L96.0447 41.4067C94.2481 41.8458 93.5759 41.8144 91.4194 41.9533Z" fill="#FF8E12"/>
<path d="M67.5 19.5C75.5 19 77.3333 23 79.5 25.5L75.5 26.5C75.9 24.9 72 22 67 22C68 21 71 21 72 21.5C72 20.7 68.8333 20.1667 67.5 19.5Z" fill="#FDD209" stroke="#FDD209"/>
<path d="M90.75 34.9C90.75 35.5075 90.1904 36 89.5 36C88.8096 36 88.25 35.5075 88.25 34.9C88.25 34.2925 88.8096 33.8 89.5 33.8C90.1904 33.8 90.75 34.2925 90.75 34.9Z" fill="white"/>
<path d="M83 39.0006C83.0002 38.6066 82.9228 38.2164 82.7722 37.8524C82.6216 37.4884 82.4007 37.1576 82.1222 36.8789C81.8438 36.6003 81.5131 36.3792 81.1492 36.2284C80.7853 36.0776 80.3952 36 80.0013 36C79.6072 35.9997 79.2168 36.077 78.8526 36.2277C78.4884 36.3783 78.1574 36.5993 77.8787 36.878C77.5999 37.1567 77.3789 37.4876 77.2281 37.8518C77.0773 38.216 76.9998 38.6064 77 39.0006C76.9997 39.3947 77.0771 39.7851 77.2278 40.1493C77.3785 40.5135 77.5996 40.8444 77.8784 41.123C78.1572 41.4017 78.4882 41.6225 78.8525 41.773C79.2168 41.9235 79.6072 42.0006 80.0013 42C81.6573 42 83 40.6594 83 39.0006ZM81.3298 38.7801C81.1237 38.7792 80.9263 38.6967 80.7808 38.5506C80.6353 38.4045 80.5537 38.2067 80.5537 38.0005C80.5537 37.7942 80.6356 37.5963 80.7815 37.4504C80.9274 37.3045 81.1252 37.2226 81.3315 37.2226C81.5378 37.2226 81.7357 37.3045 81.8815 37.4504C82.0274 37.5963 82.1093 37.7942 82.1093 38.0005C82.1093 38.1029 82.0892 38.2043 82.05 38.2988C82.0108 38.3934 81.9534 38.4794 81.881 38.5518C81.8086 38.6242 81.7227 38.6816 81.6281 38.7208C81.5336 38.7599 81.4322 38.7801 81.3298 38.7801Z" fill="#2D4F8E"/>
<path d="M81.0486 37C80.7701 37.0005 80.5031 37.1121 80.3065 37.3102C80.1098 37.5083 79.9996 37.7766 80 38.0563C80 38.6401 80.4732 39.1151 81.0486 39.1136C81.3279 39.1136 81.5958 39.0022 81.7933 38.8039C81.9908 38.6056 82.1018 38.3367 82.1018 38.0563C82.1019 37.9175 82.0747 37.78 82.0217 37.6517C81.9688 37.5235 81.8912 37.407 81.7934 37.3089C81.6956 37.2108 81.5795 37.133 81.4517 37.08C81.3239 37.027 81.1869 36.9998 81.0486 37Z" fill="white"/>
<path d="M88.4984 33C87.1224 33 86 34.1195 86 35.4969C86 36.8809 87.1224 38 88.4984 38C88.8271 38.0003 89.1526 37.9357 89.4564 37.81C89.7601 37.6843 90.0361 37.4999 90.2684 37.2674C90.5008 37.0349 90.685 36.7588 90.8106 36.455C90.9361 36.1512 91.0005 35.8256 91 35.4969C91 34.1195 89.8819 33 88.4984 33ZM89.6077 35.3128C89.2551 35.3128 88.9639 35.026 88.9639 34.6657C88.9639 34.3101 89.2551 34.0182 89.6077 34.0182C89.9756 34.0182 90.2578 34.3101 90.2578 34.6657C90.2578 35.026 89.9756 35.3128 89.6077 35.3128Z" fill="#2D4F8E"/>
<path d="M82.1701 31.9754C82.1701 31.9754 80.1218 29.2623 75.9152 30.9914C71.7131 32.72 73.2898 36.2475 73.2898 36.2475C73.2898 36.2475 73.1805 34.3338 76.1454 32.462C79.1155 30.5882 82.1701 31.9754 82.1701 31.9754Z" fill="url(#paint0_linear_76_1939)"/>
<path d="M92 32.4619C92 32.4619 91.5 30.0574 88.5 30.0574C85.7208 30.0574 85.5 32.1918 85.5 32.1918C85.5 32.1918 86.9662 31.033 89 31.0574C91 31.0814 92 32.4619 92 32.4619Z" fill="url(#paint1_linear_76_1939)"/>
</g>
<defs>
<linearGradient id="paint0_linear_76_1939" x1="2729.98" y1="748.102" x2="88.3495" y2="748.102" gradientUnits="userSpaceOnUse">
<stop stop-color="#394A9F"/>
<stop offset="1" stop-color="#6176B9"/>
</linearGradient>
<linearGradient id="paint1_linear_76_1939" x1="2729.98" y1="748.102" x2="88.3495" y2="748.102" gradientUnits="userSpaceOnUse">
<stop stop-color="#394A9F"/>
<stop offset="1" stop-color="#6176B9"/>
</linearGradient>
<clipPath id="clip0_76_1939">
<rect width="129" height="129" fill="white"/>
</clipPath>
</defs>
</svg>
