<svg width="129" height="129" viewBox="0 0 129 129" fill="none" xmlns="http://www.w3.org/2000/svg">
<g clip-path="url(#clip0_4_20843)">
<path d="M64.5735 9.53137C94.8089 9.53137 119.319 34.138 119.319 64.4919C119.319 94.8454 94.8089 119.452 64.5735 119.452C34.3386 119.452 9.82812 94.8454 9.82812 64.4919C9.82812 34.138 34.3386 9.53137 64.5735 9.53137Z" fill="#FF9C29"/>
<path d="M64.5723 128.961C100.039 128.961 128.79 100.096 128.79 64.4909C128.79 28.8854 100.039 0.0212402 64.5723 0.0212402C29.1059 0.0212402 0.354492 28.8854 0.354492 64.4909C0.354492 100.096 29.1059 128.961 64.5723 128.961ZM64.5723 123.588C32.0613 123.588 5.70598 97.1294 5.70598 64.4909C5.70598 31.8524 32.0613 5.39371 64.5723 5.39371C97.0833 5.39371 123.439 31.8524 123.439 64.4909C123.439 97.1294 97.0833 123.588 64.5723 123.588Z" fill="#FF9C29"/>
<path d="M89.3485 38.2242L77.9491 41.5395L82.5645 38.4155C79.6507 39.0739 75.9695 40.3618 71.343 42.4404L63.7916 50.3132L66.4719 44.8137C63.8806 46.255 61.1336 48.1445 58.4867 50.3577L56.7295 57.5087L56.3514 52.2149C53.7379 54.6171 51.2801 57.2863 49.2449 60.1C47.1062 63.0471 45.4347 66.1611 44.5972 69.264L41.4699 67.1732C41.7502 69.8089 42.6165 72.0999 44.0378 74.2019L40.2988 73.0564C41.1485 75.6699 42.5376 77.3603 44.8864 78.7283C43.5707 82.4317 42.9535 86.3019 42.2907 90.161L44.337 90.5058C46.7103 66.8506 63.458 51.7701 78.5941 45.0884L79.3615 47.0212C65.8268 53.0824 55.306 63.3141 49.8009 78.061C51.8139 78.0721 53.7824 77.8274 55.6063 77.3603L56.1512 70.5874L57.6081 76.7598C58.8204 76.3149 59.9325 75.7811 60.9223 75.1583L58.6202 70.3205L62.268 74.1907C63.1577 73.479 63.8917 72.6782 64.4478 71.7997C67.8287 66.517 71.3653 61.2677 78.3272 56.8748L73.2448 55.0731L81.0408 55.3067C82.3087 54.6616 83.6432 53.872 84.6553 53.1269L79.128 52.682L87.4356 50.7247C88.0807 50.0796 88.6812 49.4012 89.2262 48.7228C91.1502 46.2828 92.4514 43.7427 92.14 41.4328C91.9954 40.2772 91.3059 39.1907 90.1826 38.5824C89.9046 38.4378 89.6043 38.3099 89.3485 38.2242Z" fill="white"/>
</g>
<defs>
<clipPath id="clip0_4_20843">
<rect width="129" height="129" fill="white"/>
</clipPath>
</defs>
</svg>
